<svg width="19" height="20" viewBox="0 0 19 20" fill="none" xmlns="http://www.w3.org/2000/svg">
<path d="M3.59375 20C2.76042 20 2.05208 19.7083 1.46875 19.125C0.885417 18.5417 0.59375 17.8333 0.59375 17V14H3.59375V0L5.09375 1.5L6.59375 0L8.09375 1.5L9.59375 0L11.0938 1.5L12.5938 0L14.0938 1.5L15.5938 0L17.0938 1.5L18.5938 0V17C18.5938 17.8333 18.3021 18.5417 17.7188 19.125C17.1354 19.7083 16.4271 20 15.5938 20H3.59375ZM15.5938 18C15.8771 18 16.1146 17.9042 16.3063 17.7125C16.4979 17.5208 16.5938 17.2833 16.5938 17V3H5.59375V14H14.5938V17C14.5938 17.2833 14.6896 17.5208 14.8813 17.7125C15.0729 17.9042 15.3104 18 15.5938 18ZM6.59375 7V5H12.5938V7H6.59375ZM6.59375 10V8H12.5938V10H6.59375ZM14.5938 7C14.3104 7 14.0729 6.90417 13.8813 6.7125C13.6896 6.52083 13.5938 6.28333 13.5938 6C13.5938 5.71667 13.6896 5.47917 13.8813 5.2875C14.0729 5.09583 14.3104 5 14.5938 5C14.8771 5 15.1146 5.09583 15.3063 5.2875C15.4979 5.47917 15.5938 5.71667 15.5938 6C15.5938 6.28333 15.4979 6.52083 15.3063 6.7125C15.1146 6.90417 14.8771 7 14.5938 7ZM14.5938 10C14.3104 10 14.0729 9.90417 13.8813 9.7125C13.6896 9.52083 13.5938 9.28333 13.5938 9C13.5938 8.71667 13.6896 8.47917 13.8813 8.2875C14.0729 8.09583 14.3104 8 14.5938 8C14.8771 8 15.1146 8.09583 15.3063 8.2875C15.4979 8.47917 15.5938 8.71667 15.5938 9C15.5938 9.28333 15.4979 9.52083 15.3063 9.7125C15.1146 9.90417 14.8771 10 14.5938 10ZM3.59375 18H12.5938V16H2.59375V17C2.59375 17.2833 2.68958 17.5208 2.88125 17.7125C3.07292 17.9042 3.31042 18 3.59375 18Z" fill="white"/>
</svg>
