<svg width="20" height="20" viewBox="0 0 20 20" fill="none" xmlns="http://www.w3.org/2000/svg">
<path d="M8.97502 19.95C7.70836 19.8167 6.52919 19.4625 5.43752 18.8875C4.34586 18.3125 3.40002 17.5792 2.60002 16.6875C1.80002 15.7958 1.17086 14.775 0.712524 13.625C0.254191 12.475 0.0250244 11.2583 0.0250244 9.975C0.0250244 7.39167 0.879191 5.15417 2.58752 3.2625C4.29586 1.37083 6.43336 0.283333 9.00002 0V2C6.98336 2.28333 5.31669 3.17917 4.00002 4.6875C2.68336 6.19583 2.02502 7.95833 2.02502 9.975C2.02502 11.9917 2.68336 13.7542 4.00002 15.2625C5.31669 16.7708 6.97502 17.6667 8.97502 17.95V19.95ZM9.97502 15L4.95002 9.95L6.37502 8.525L8.97502 11.125V5H10.975V11.125L13.55 8.55L14.975 10L9.97502 15ZM10.975 19.95V17.95C11.6917 17.85 12.3792 17.6583 13.0375 17.375C13.6959 17.0917 14.3084 16.7333 14.875 16.3L16.325 17.75C15.5417 18.3667 14.7 18.8625 13.8 19.2375C12.9 19.6125 11.9584 19.85 10.975 19.95ZM14.925 3.65C14.3417 3.21667 13.7209 2.85833 13.0625 2.575C12.4042 2.29167 11.7167 2.1 11 2V0C11.9834 0.1 12.925 0.3375 13.825 0.7125C14.725 1.0875 15.5584 1.58333 16.325 2.2L14.925 3.65ZM17.725 16.3L16.325 14.875C16.7584 14.3083 17.1084 13.6958 17.375 13.0375C17.6417 12.3792 17.825 11.6917 17.925 10.975H19.975C19.8417 11.9583 19.5917 12.9042 19.225 13.8125C18.8584 14.7208 18.3584 15.55 17.725 16.3ZM17.925 8.975C17.825 8.25833 17.6417 7.57083 17.375 6.9125C17.1084 6.25417 16.7584 5.64167 16.325 5.075L17.725 3.65C18.3584 4.4 18.8667 5.22917 19.25 6.1375C19.6334 7.04583 19.875 7.99167 19.975 8.975H17.925Z" fill="#FBC563"/>
</svg>
