<svg width="21" height="24" viewBox="0 0 21 24" fill="none" xmlns="http://www.w3.org/2000/svg">
<path d="M2.96659 23.2941C2.37345 23.2941 1.86569 23.066 1.4433 22.6099C1.02092 22.1537 0.809723 21.6053 0.809723 20.9647V4.65882C0.809723 4.01824 1.02092 3.46985 1.4433 3.01368C1.86569 2.5575 2.37345 2.32941 2.96659 2.32941H4.04502V0H6.20188V2.32941H14.8293V0H16.9862V2.32941H18.0646C18.6578 2.32941 19.1655 2.5575 19.5879 3.01368C20.0103 3.46985 20.2215 4.01824 20.2215 4.65882V20.9647C20.2215 21.6053 20.0103 22.1537 19.5879 22.6099C19.1655 23.066 18.6578 23.2941 18.0646 23.2941H2.96659ZM2.96659 20.9647H18.0646V9.31765H2.96659V20.9647ZM2.96659 6.98823H18.0646V4.65882H2.96659V6.98823Z" fill="white"/>
</svg>
