<svg width="21" height="20" viewBox="0 0 21 20" fill="none" xmlns="http://www.w3.org/2000/svg">
<path d="M7.9377 20L7.5377 16.8C7.32103 16.7167 7.11686 16.6167 6.9252 16.5C6.73353 16.3833 6.54603 16.2583 6.3627 16.125L3.3877 17.375L0.637695 12.625L3.2127 10.675C3.19603 10.5583 3.1877 10.4458 3.1877 10.3375V9.6625C3.1877 9.55417 3.19603 9.44167 3.2127 9.325L0.637695 7.375L3.3877 2.625L6.3627 3.875C6.54603 3.74167 6.7377 3.61667 6.9377 3.5C7.1377 3.38333 7.3377 3.28333 7.5377 3.2L7.9377 0H13.4377L13.8377 3.2C14.0544 3.28333 14.2585 3.38333 14.4502 3.5C14.6419 3.61667 14.8294 3.74167 15.0127 3.875L17.9877 2.625L20.7377 7.375L18.1627 9.325C18.1794 9.44167 18.1877 9.55417 18.1877 9.6625V10.3375C18.1877 10.4458 18.171 10.5583 18.1377 10.675L20.7127 12.625L17.9627 17.375L15.0127 16.125C14.8294 16.2583 14.6377 16.3833 14.4377 16.5C14.2377 16.6167 14.0377 16.7167 13.8377 16.8L13.4377 20H7.9377ZM9.6877 18H11.6627L12.0127 15.35C12.5294 15.2167 13.0085 15.0208 13.4502 14.7625C13.8919 14.5042 14.296 14.1917 14.6627 13.825L17.1377 14.85L18.1127 13.15L15.9627 11.525C16.046 11.2917 16.1044 11.0458 16.1377 10.7875C16.171 10.5292 16.1877 10.2667 16.1877 10C16.1877 9.73333 16.171 9.47083 16.1377 9.2125C16.1044 8.95417 16.046 8.70833 15.9627 8.475L18.1127 6.85L17.1377 5.15L14.6627 6.2C14.296 5.81667 13.8919 5.49583 13.4502 5.2375C13.0085 4.97917 12.5294 4.78333 12.0127 4.65L11.6877 2H9.7127L9.3627 4.65C8.84603 4.78333 8.36686 4.97917 7.9252 5.2375C7.48353 5.49583 7.07936 5.80833 6.7127 6.175L4.2377 5.15L3.2627 6.85L5.4127 8.45C5.32936 8.7 5.27103 8.95 5.2377 9.2C5.20436 9.45 5.1877 9.71667 5.1877 10C5.1877 10.2667 5.20436 10.525 5.2377 10.775C5.27103 11.025 5.32936 11.275 5.4127 11.525L3.2627 13.15L4.2377 14.85L6.7127 13.8C7.07936 14.1833 7.48353 14.5042 7.9252 14.7625C8.36686 15.0208 8.84603 15.2167 9.3627 15.35L9.6877 18ZM10.7377 13.5C11.7044 13.5 12.5294 13.1583 13.2127 12.475C13.896 11.7917 14.2377 10.9667 14.2377 10C14.2377 9.03333 13.896 8.20833 13.2127 7.525C12.5294 6.84167 11.7044 6.5 10.7377 6.5C9.75436 6.5 8.9252 6.84167 8.2502 7.525C7.5752 8.20833 7.2377 9.03333 7.2377 10C7.2377 10.9667 7.5752 11.7917 8.2502 12.475C8.9252 13.1583 9.75436 13.5 10.7377 13.5Z" fill="white"/>
</svg>
