<svg width="11" height="21" viewBox="0 0 11 21" fill="none" xmlns="http://www.w3.org/2000/svg">
<path d="M4.35294 21V18.4917C3.31373 18.2583 2.41667 17.8111 1.66176 17.15C0.906863 16.4889 0.352941 15.5556 0 14.35L2.17647 13.475C2.47059 14.4083 2.90686 15.1181 3.48529 15.6042C4.06373 16.0903 4.82353 16.3333 5.76471 16.3333C6.56863 16.3333 7.25 16.1535 7.80882 15.7937C8.36765 15.434 8.64706 14.875 8.64706 14.1167C8.64706 13.4361 8.43137 12.8965 8 12.4979C7.56863 12.0993 6.56863 11.6472 5 11.1417C3.31373 10.6167 2.15686 9.98958 1.52941 9.26042C0.901961 8.53125 0.588235 7.64167 0.588235 6.59167C0.588235 5.32778 1 4.34583 1.82353 3.64583C2.64706 2.94583 3.4902 2.54722 4.35294 2.45V0H6.70588V2.45C7.68627 2.60556 8.4951 2.96042 9.13235 3.51458C9.76961 4.06875 10.2353 4.74444 10.5294 5.54167L8.35294 6.475C8.11765 5.85278 7.78431 5.38611 7.35294 5.075C6.92157 4.76389 6.33333 4.60833 5.58824 4.60833C4.72549 4.60833 4.06863 4.79792 3.61765 5.17708C3.16667 5.55625 2.94118 6.02778 2.94118 6.59167C2.94118 7.23333 3.23529 7.73889 3.82353 8.10833C4.41176 8.47778 5.43137 8.86667 6.88235 9.275C8.23529 9.66389 9.2598 10.2812 9.95588 11.1271C10.652 11.9729 11 12.95 11 14.0583C11 15.4389 10.5882 16.4889 9.76471 17.2083C8.94118 17.9278 7.92157 18.375 6.70588 18.55V21H4.35294Z" fill="white"/>
</svg>
