<svg width="12" height="24" viewBox="0 0 12 24" fill="none" xmlns="http://www.w3.org/2000/svg">
<path d="M4.609 23.2941V20.5118C3.50865 20.2529 2.55882 19.7569 1.75952 19.0235C0.960208 18.2902 0.373702 17.2549 0 15.9176L2.3045 14.9471C2.61592 15.9824 3.07785 16.7696 3.69031 17.3088C4.30277 17.848 5.10727 18.1176 6.10381 18.1176C6.95502 18.1176 7.67647 17.9181 8.26817 17.5191C8.85986 17.1201 9.15571 16.5 9.15571 15.6588C9.15571 14.9039 8.92734 14.3054 8.47059 13.8632C8.01384 13.4211 6.95502 12.9196 5.29412 12.3588C3.50865 11.7765 2.28374 11.0809 1.61938 10.2721C0.955017 9.46323 0.622837 8.47647 0.622837 7.31176C0.622837 5.9098 1.05882 4.82059 1.9308 4.04412C2.80277 3.26765 3.6955 2.82549 4.609 2.71765V0H7.10035V2.71765C8.13841 2.8902 8.99481 3.28382 9.66955 3.89853C10.3443 4.51324 10.8374 5.26274 11.1488 6.14706L8.84429 7.18235C8.59516 6.49216 8.24221 5.97451 7.78547 5.62941C7.32872 5.28431 6.70588 5.11176 5.91695 5.11176C5.00346 5.11176 4.30796 5.32206 3.83045 5.74265C3.35294 6.16323 3.11419 6.68627 3.11419 7.31176C3.11419 8.02353 3.42561 8.58431 4.04844 8.99412C4.67128 9.40392 5.75086 9.83529 7.2872 10.2882C8.71972 10.7196 9.8045 11.4044 10.5415 12.3426C11.2785 13.2809 11.6471 14.3647 11.6471 15.5941C11.6471 17.1255 11.2111 18.2902 10.3391 19.0882C9.46713 19.8863 8.38754 20.3824 7.10035 20.5765V23.2941H4.609Z" fill="#2FA6FF"/>
</svg>
