<svg width="12" height="24" viewBox="0 0 12 24" fill="none" xmlns="http://www.w3.org/2000/svg">
<path d="M7.08785 20.5765V23.2816H4.6215V20.5118V20.5019L4.61186 20.4996C3.51351 20.2412 2.56563 19.7461 1.76797 19.0143C0.972907 18.2849 0.38839 17.2554 0.0150092 15.9249L2.29654 14.964C2.60838 15.9942 3.06999 16.7793 3.68205 17.3182C4.29727 17.8598 5.10493 18.1301 6.10381 18.1301C6.95702 18.1301 7.68102 17.9301 8.27515 17.5295C8.87095 17.1277 9.16821 16.5033 9.16821 15.6588C9.16821 14.9012 8.93891 14.2992 8.47928 13.8543C8.24942 13.6317 7.86905 13.3951 7.33926 13.1442C6.80925 12.8932 6.12882 12.6275 5.29812 12.347L5.29799 12.3469C3.51323 11.7648 2.2911 11.0702 1.62904 10.2641C0.966722 9.45779 0.635337 8.47392 0.635337 7.31176C0.635337 5.91259 1.07033 4.82708 1.93911 4.05345C2.80968 3.27823 3.70012 2.83753 4.61046 2.73006L4.6215 2.72876V2.71765V0.0125H7.08785V2.71765V2.72824L7.0983 2.72998C8.13435 2.90219 8.98843 3.29492 9.66113 3.90777C10.3315 4.51853 10.8222 5.26267 11.1332 6.14037L8.85145 7.16543C8.60198 6.47992 8.24935 5.96423 7.793 5.61944C7.3334 5.27218 6.70759 5.09926 5.91695 5.09926C5.00173 5.09926 4.3028 5.30995 3.82219 5.73327C3.34204 6.15618 3.10169 6.68261 3.10169 7.31176C3.10169 8.02797 3.41542 8.59258 4.04157 9.00456C4.66605 9.41545 5.74715 9.84723 7.28359 10.3002C8.71428 10.731 9.79662 11.4146 10.5317 12.3504C11.2669 13.2863 11.6346 14.3674 11.6346 15.5941C11.6346 17.1231 11.1993 18.284 10.3307 19.079C9.4607 19.8752 8.38348 20.3703 7.09848 20.5641L7.08785 20.5657V20.5765Z" fill="white" stroke="white" stroke-width="0.025"/>
</svg>
